<svg xmlns="http://www.w3.org/2000/svg" width="450" height="360" viewBox="0 0 450 360">
  <g id="Group_76" data-name="Group 76" transform="translate(-217 -162)">
    <rect id="Rectangle_59" data-name="Rectangle 59" width="450" height="360" transform="translate(217 162)" fill="rgba(255,0,0,0)"/>
    <g id="Group_66" data-name="Group 66" transform="translate(-4930.307 1271.081)">
      <path id="Path_158" data-name="Path 158" d="M5386.211-958.292l-19.98-11.535,19.98-11.535,19.98,11.535Z" transform="translate(18.768 12.167)" fill="#fff" stroke="#5258b6" stroke-linejoin="round" stroke-width="3"/>
      <path id="Path_159" data-name="Path 159" d="M5352.414-977.859l-19.98-11.535,19.98-11.535,19.979,11.535Z" transform="translate(12.606 8.598)" fill="#fff" stroke="#5258b6" stroke-linejoin="round" stroke-width="3"/>
      <path id="Path_160" data-name="Path 160" d="M5352.414-938.779l-19.98,11.535v-23.071l19.98-11.535Z" transform="translate(12.606 15.725)" fill="#fff" stroke="#5258b6" stroke-linejoin="round" stroke-width="3"/>
      <path id="Path_161" data-name="Path 161" d="M5335.516-927.244l-19.98-11.535V-961.85l19.98,11.535Z" transform="translate(9.524 15.725)" fill="#5258b6" stroke="#5258b6" stroke-linejoin="round" stroke-width="3"/>
      <path id="Path_162" data-name="Path 162" d="M5335.516-948.535l-19.979-11.535,19.979-11.535,19.98,11.535Z" transform="translate(9.524 13.946)" fill="#fff" stroke="#5258b6" stroke-linejoin="round" stroke-width="3"/>
      <path id="Path_163" data-name="Path 163" d="M5386.21-954.723l-19.979,11.535v-46.207l19.979-11.535Z" transform="translate(18.769 8.598)" fill="#fff" stroke="#5258b6" stroke-linejoin="round" stroke-width="3"/>
      <path id="Path_164" data-name="Path 164" d="M5369.313-987.615l-19.98-11.535,19.979-11.535,19.98,11.535Z" transform="translate(15.687 6.819)" fill="#fff" stroke="#5258b6" stroke-linejoin="round" stroke-width="3"/>
      <path id="Path_165" data-name="Path 165" d="M5403.109-925.53l-19.98,11.535v-46.076l19.98-11.535Z" transform="translate(21.85 13.946)" fill="#fff" stroke="#5258b6" stroke-linejoin="round" stroke-width="3"/>
      <path id="Path_166" data-name="Path 166" d="M5386.21-938.834l-19.979-11.535,19.979-11.535,19.98,11.535Z" transform="translate(18.769 15.715)" fill="#fff" stroke="#5258b6" stroke-linejoin="round" stroke-width="3"/>
      <path id="Path_167" data-name="Path 167" d="M5332.434-989.395l19.98,11.535v-23.071l19.98,11.535v46.141l19.979,11.535v23.071l-39.959-23.005v-23.136l-19.98-11.47Z" transform="translate(12.606 8.598)" fill="#5258b6" stroke="#5258b6" stroke-linejoin="round" stroke-width="3"/>
      <g id="Group_62" data-name="Group 62" transform="translate(5267.761 -1048.082)">
        <path id="Path_168" data-name="Path 168" d="M5267.075-1005.209l22.494,5.126,13.635,44.149-22.494-5.126Z" transform="translate(-5267.075 1055.899)" fill="#5258b6" stroke="#5258b6" stroke-linejoin="round" stroke-width="3"/>
        <path id="Path_169" data-name="Path 169" d="M5333.177-1043.746l6.808,22.043-31.392,33.772,6.827,22.106-15.686,16.918L5286.1-993.056Z" transform="translate(-5263.605 1048.872)" fill="#fff" stroke="#5258b6" stroke-linejoin="round" stroke-width="3"/>
        <path id="Path_170" data-name="Path 170" d="M5267.075-997.391l22.494,5.126,47.077-50.69-22.494-5.126Z" transform="translate(-5267.075 1048.082)" fill="#fff" stroke="#5258b6" stroke-linejoin="round" stroke-width="3"/>
      </g>
      <g id="Group_63" data-name="Group 63" transform="translate(5421.75 -933.798)">
        <path id="Path_171" data-name="Path 171" d="M5428.171-945.16l17.339,15.219-13.519,67.812-34.678-30.438,4.511-22.625,17.338,15.219Z" transform="translate(-5397.313 952.566)" fill="#5258b6" stroke="#5258b6" stroke-linejoin="round" stroke-width="3"/>
        <path id="Path_172" data-name="Path 172" d="M5440.162-931.146l21.849-7.406-4.511,22.625,21.85-7.406-4.511,22.625L5453-893.366l-4.511,22.625-21.849,7.406Z" transform="translate(-5391.966 953.771)" fill="#fff" stroke="#5258b6" stroke-linejoin="round" stroke-width="3"/>
        <path id="Path_173" data-name="Path 173" d="M5401.129-918.672l17.338,15.219,4.511-22.625Z" transform="translate(-5396.618 956.046)" fill="#fff" stroke="#5258b6" stroke-linejoin="round" stroke-width="3"/>
        <path id="Path_174" data-name="Path 174" d="M5445.262-951.424l17.339,15.219-21.85,7.406-17.339-15.219Z" transform="translate(-5392.554 951.424)" fill="#fff" stroke="#5258b6" stroke-linejoin="round" stroke-width="3"/>
        <path id="Path_175" data-name="Path 175" d="M5452.741-915.927l21.85-7.406-17.339-15.219Z" transform="translate(-5387.206 953.771)" fill="#fff" stroke="#5258b6" stroke-linejoin="round" stroke-width="3"/>
      </g>
      <g id="Group_64" data-name="Group 64" transform="translate(5322.474 -900.857)">
        <path id="Path_176" data-name="Path 176" d="M5332-911.849l21.236,9.017,8.427,68.7-21.235-9.017-2.81-22.9-21.235-9.017-2.809-22.9,21.235,9.017Z" transform="translate(-5313.309 925.699)" fill="#5258b6" stroke="#5258b6" stroke-linejoin="round" stroke-width="3"/>
        <path id="Path_177" data-name="Path 177" d="M5365.32-915.937l8.428,68.7-18.426,13.882-8.428-68.7Z" transform="translate(-5307.231 924.954)" fill="#fff" stroke="#5258b6" stroke-linejoin="round" stroke-width="3"/>
        <path id="Path_178" data-name="Path 178" d="M5347.36-923.563l-18.426,13.882,21.235,9.017,18.426-13.882Z" transform="translate(-5310.507 923.563)" fill="#fff" stroke="#5258b6" stroke-linejoin="round" stroke-width="3"/>
        <path id="Path_179" data-name="Path 179" d="M5313.349-897.94l21.236,9.017-2.809-22.9Z" transform="translate(-5313.349 925.704)" fill="#fff" stroke="#5258b6" stroke-linejoin="round" stroke-width="3"/>
      </g>
      <g id="Group_65" data-name="Group 65" transform="translate(5263.307 -922.707)">
        <path id="Path_180" data-name="Path 180" d="M5299.861-906.623l-21.794,7.568,4.343-22.658,21.793-7.568Z" transform="translate(-5260.616 944.371)" fill="#fff" stroke="#5258b6" stroke-linejoin="round" stroke-width="3"/>
        <path id="Path_181" data-name="Path 181" d="M5280.758-897.895l-17.451-15.09,4.342-22.658,17.452,15.09Z" transform="translate(-5263.307 943.211)" fill="#5258b6" stroke="#5258b6" stroke-linejoin="round" stroke-width="3"/>
        <path id="Path_182" data-name="Path 182" d="M5284.431-919.386l-17.451-15.09,21.793-7.568,17.451,15.09Z" transform="translate(-5262.637 942.044)" fill="#fff" stroke="#5258b6" stroke-linejoin="round" stroke-width="3"/>
      </g>
    </g>
  </g>
</svg>
