<svg xmlns="http://www.w3.org/2000/svg" width="450" height="360" viewBox="0 0 450 360">
  <g id="Group_77" data-name="Group 77" transform="translate(-217 -664)">
    <rect id="Rectangle_59" data-name="Rectangle 59" width="450" height="360" transform="translate(217 664)" fill="rgba(255,0,0,0)"/>
    <g id="Group_60" data-name="Group 60" transform="translate(-4368.476 802.572)">
      <path id="Path_45" data-name="Path 45" d="M4972.447,4.609H4965.8L4960.4,1.84,4871.63-45.835c-5.138-2.966-14.112-2.594-20.044.831L4654.56,64.108h-4.084V78h.011c.01,1.875,1.14,3.664,3.457,5l97.349,56.205c5.138,2.966,14.112,2.594,20.044-.831L4967.54,25.1c3.269-1.887,4.923-4.307,4.9-6.6h.01Z" fill="#5258b6"/>
      <g id="Path_46" data-name="Path 46" fill="#fff" stroke-miterlimit="10">
        <path d="M 4759.99853515625 125.8163299560547 C 4756.880859375 125.8163299560547 4754.05517578125 125.1765823364258 4752.04296875 124.0149154663086 L 4654.69384765625 67.81095886230469 C 4653.45361328125 67.09508514404297 4651.9755859375 65.86741638183594 4651.9755859375 64.08403778076172 C 4651.9755859375 63.25591659545898 4652.2939453125 62.40266418457031 4652.92138671875 61.54799652099609 C 4653.63671875 60.57374954223633 4654.74755859375 59.6359977722168 4656.1328125 58.83599853515625 L 4852.3359375 -54.44095993041992 C 4855.23291015625 -56.11412811279297 4859.091796875 -57.07366943359375 4862.92333984375 -57.07366943359375 C 4866.04150390625 -57.07366943359375 4868.8671875 -56.43379211425781 4870.8798828125 -55.27191925048828 L 4968.22900390625 0.9320397973060608 C 4969.46923828125 1.647956490516663 4970.94775390625 2.875623226165771 4970.94775390625 4.658998012542725 C 4970.94775390625 5.487081527709961 4970.62939453125 6.340331554412842 4970.00146484375 7.194998264312744 C 4969.2861328125 8.169206619262695 4968.17578125 9.106998443603516 4966.7900390625 9.906956672668457 L 4770.5869140625 123.1839599609375 C 4767.689453125 124.8568725585938 4763.830078125 125.8163299560547 4759.99853515625 125.8163299560547 Z" stroke="none"/>
        <path d="M 4759.99853515625 124.3162994384766 C 4763.57470703125 124.3162994384766 4767.16064453125 123.4300994873047 4769.8369140625 121.884895324707 L 4966.0400390625 8.607948303222656 C 4968.552734375 7.15729808807373 4969.44775390625 5.616948127746582 4969.44775390625 4.659048080444336 C 4969.44775390625 3.535198211669922 4968.21435546875 2.655548095703125 4967.47900390625 2.231098175048828 L 4870.1298828125 -53.97285079956055 C 4868.341796875 -55.00515365600586 4865.78271484375 -55.57365036010742 4862.92333984375 -55.57365036010742 C 4859.34765625 -55.57365036010742 4855.76171875 -54.68740081787109 4853.0859375 -53.14190292358398 L 4656.8828125 60.1349983215332 C 4654.37060546875 61.58564758300781 4653.4755859375 63.12604904174805 4653.4755859375 64.08394622802734 C 4653.4755859375 65.20784759521484 4654.708984375 66.08754730224609 4655.44384765625 66.51190185546875 L 4752.79296875 122.7157974243164 C 4754.58056640625 123.7479019165039 4757.1396484375 124.3162994384766 4759.99853515625 124.3162994384766 M 4759.99853515625 127.3163223266602 C 4756.7353515625 127.3163223266602 4753.62109375 126.6577835083008 4751.29296875 125.3139953613281 L 4653.94384765625 69.11000061035156 C 4648.80615234375 66.14399719238281 4649.451171875 60.96199798583984 4655.3828125 57.5369987487793 L 4851.5859375 -55.7400016784668 C 4854.830078125 -57.61359405517578 4858.98486328125 -58.57366180419922 4862.92333984375 -58.57366180419922 C 4866.18701171875 -58.57366180419922 4869.3017578125 -57.91497039794922 4871.6298828125 -56.57100296020508 L 4968.97900390625 -0.3670018911361694 C 4974.1171875 2.598998069763184 4973.47216796875 7.780998229980469 4967.5400390625 11.20599842071533 L 4771.3369140625 124.4830017089844 C 4768.09228515625 126.3562545776367 4763.9375 127.3163223266602 4759.99853515625 127.3163223266602 Z" stroke="none" fill="#5258b6"/>
      </g>
      <g id="Path_47" data-name="Path 47" fill="#fff" stroke-miterlimit="10">
        <path d="M 4786.78271484375 99.27106475830078 C 4786.37646484375 99.27106475830078 4786.0859375 99.18679809570313 4785.94921875 99.10796356201172 L 4697.759765625 48.19229888916016 L 4852.9677734375 -42.21686553955078 C 4853.3076171875 -42.4116096496582 4853.7958984375 -42.52806854248047 4854.2744140625 -42.52806854248047 C 4854.68115234375 -42.52806854248047 4854.97265625 -42.44356536865234 4855.10986328125 -42.36443328857422 L 4943.29638671875 8.551061630249023 L 4788.08935546875 98.95986938476563 C 4787.74951171875 99.15464782714844 4787.26123046875 99.27106475830078 4786.78271484375 99.27106475830078 Z" stroke="none"/>
        <path d="M 4854.2744140625 -41.02807998657227 C 4854.0009765625 -41.02807998657227 4853.78076171875 -40.95322036743164 4853.71484375 -40.91592025756836 L 4700.74951171875 48.1865234375 L 4786.61279296875 97.75904846191406 C 4786.6484375 97.76478576660156 4786.70654296875 97.77107238769531 4786.78271484375 97.77107238769531 C 4787.056640625 97.77107238769531 4787.27685546875 97.696044921875 4787.3427734375 97.65879821777344 L 4940.30615234375 8.556831359863281 L 4854.4453125 -41.01586532592773 C 4854.40966796875 -41.02167892456055 4854.35107421875 -41.02807998657227 4854.2744140625 -41.02807998657227 M 4854.2744140625 -44.02807998657227 C 4854.8681640625 -44.02807235717773 4855.43505859375 -43.90826797485352 4855.85888671875 -43.66399765014648 L 4944.60400390625 7.574001312255859 C 4945.5390625 8.112998962402344 4945.4208984375 9.055000305175781 4944.341796875 9.678001403808594 L 4788.84423828125 100.2559967041016 C 4788.25439453125 100.5966644287109 4787.49853515625 100.7710800170898 4786.78271484375 100.7710800170898 C 4786.18896484375 100.7710800170898 4785.6220703125 100.6512680053711 4785.19921875 100.4069976806641 L 4696.453125 49.16999816894531 C 4695.51904296875 48.63000106811523 4695.63623046875 47.6879997253418 4696.71484375 47.06499862670898 L 4852.212890625 -43.51299667358398 C 4852.802734375 -43.85366439819336 4853.55810546875 -44.02807998657227 4854.2744140625 -44.02807998657227 Z" stroke="none" fill="#5258b6"/>
      </g>
      <ellipse id="Ellipse_1" data-name="Ellipse 1" cx="10.636" cy="6.141" rx="10.636" ry="6.141" transform="translate(4711.38 76.545)" fill="none" stroke="#5258b6" stroke-miterlimit="10" stroke-width="3"/>
      <ellipse id="Ellipse_2" data-name="Ellipse 2" cx="2.804" cy="1.619" rx="2.804" ry="1.619" transform="translate(4892.742 -31.706)" fill="#5258b6"/>
      <path id="Path_48" data-name="Path 48" d="M4913.136-18.184l-13.048-7.534c-.724-.417-.633-1.147.2-1.63h0a3.138,3.138,0,0,1,2.823-.117l13.049,7.534c.723.418.633,1.147-.2,1.63h0A3.14,3.14,0,0,1,4913.136-18.184Z" fill="#5258b6"/>
      <path id="Path_49" data-name="Path 49" d="M4742.726,127.159l-13.049-7.533a3.141,3.141,0,0,1-1.31-2.5h0c0-.965.587-1.408,1.31-.99l13.049,7.533a3.137,3.137,0,0,1,1.31,2.5h0C4744.036,127.134,4743.45,127.577,4742.726,127.159Z" fill="#fff"/>
      <g id="Group_8" data-name="Group 8">
        <path id="Path_50" data-name="Path 50" d="M4820.5,64.5l-27.04-15.612a1.032,1.032,0,0,1-.5-.541l-3.148-9.632c-.234-.718.855-1.347,2.1-1.211l16.684,1.817a2.414,2.414,0,0,1,.936.286l27.04,15.611a.774.774,0,0,1,0,1.466L4823.039,64.5A2.811,2.811,0,0,1,4820.5,64.5Z" fill="#5258b6"/>
        <ellipse id="Ellipse_3" data-name="Ellipse 3" cx="1.394" cy="0.805" rx="1.394" ry="0.805" transform="translate(4791.908 38.708)" fill="#fff"/>
        <g id="Group_7" data-name="Group 7">
          <path id="Path_51" data-name="Path 51" d="M4806.619,44.514a4.662,4.662,0,0,1,1.074-.184,4.076,4.076,0,0,1,2.305.55,2.773,2.773,0,0,1,1.361,1.212,1.345,1.345,0,0,1-.563,1.188,4.512,4.512,0,0,1-1.311.769,14.429,14.429,0,0,1-1.915.49c-1.545.361-2.3.55-2.426.586a5.423,5.423,0,0,1-1.085.283,1.362,1.362,0,0,1-.594.012c-.134-.03-.144-.071-.359-.195-.174-.112-.194-.1-.543-.29l-.471-.272c-.091-.041-.45-.2-.4-.349.042-.13.348-.2.645-.254l1.874-.4a2.528,2.528,0,0,0,.635-.118.412.412,0,0,0,.195-.1c.082-.083.041-.19-.083-.272a1.167,1.167,0,0,1-.583-.846c-.082-.4.358-.786.614-.993A5.137,5.137,0,0,1,4806.619,44.514Zm.583,2.193a.785.785,0,0,0,.686.123c.225-.105.533-.2.6-.407.04-.142.051-.278-.124-.367a.776.776,0,0,0-.757-.094.838.838,0,0,1-.2.053C4806.844,46.193,4806.823,46.535,4807.2,46.707Z" fill="#fff"/>
          <path id="Path_52" data-name="Path 52" d="M4812.456,47.884a4.662,4.662,0,0,1,1.074-.184,4.074,4.074,0,0,1,2.305.55,2.773,2.773,0,0,1,1.361,1.212,1.345,1.345,0,0,1-.563,1.188,4.512,4.512,0,0,1-1.311.769,14.433,14.433,0,0,1-1.915.49c-1.545.361-2.3.55-2.426.586a5.422,5.422,0,0,1-1.085.283,1.362,1.362,0,0,1-.594.012c-.134-.03-.144-.071-.359-.195-.174-.112-.194-.1-.543-.29l-.471-.272c-.091-.041-.45-.2-.4-.349.042-.13.348-.2.645-.254l1.874-.4a2.523,2.523,0,0,0,.635-.118.412.412,0,0,0,.195-.1c.082-.083.041-.19-.083-.272a1.167,1.167,0,0,1-.583-.846c-.082-.4.358-.786.614-.993A5.142,5.142,0,0,1,4812.456,47.884Zm.583,2.193a.785.785,0,0,0,.686.123c.225-.1.533-.2.6-.407.04-.142.051-.278-.124-.367a.775.775,0,0,0-.757-.094.842.842,0,0,1-.2.053C4812.681,49.563,4812.66,49.9,4813.039,50.077Z" fill="#fff"/>
          <path id="Path_53" data-name="Path 53" d="M4818.293,51.254a4.669,4.669,0,0,1,1.074-.184,4.073,4.073,0,0,1,2.3.55,2.774,2.774,0,0,1,1.361,1.212,1.346,1.346,0,0,1-.563,1.188,4.519,4.519,0,0,1-1.311.769,14.455,14.455,0,0,1-1.915.49c-1.545.361-2.3.55-2.426.586a5.385,5.385,0,0,1-1.085.283,1.359,1.359,0,0,1-.594.012c-.134-.03-.144-.071-.359-.195-.174-.112-.194-.1-.543-.29l-.471-.272c-.091-.041-.45-.2-.4-.349.042-.13.348-.2.645-.254l1.874-.4a2.518,2.518,0,0,0,.635-.118.412.412,0,0,0,.195-.1c.082-.083.041-.19-.083-.272a1.167,1.167,0,0,1-.583-.846c-.082-.4.358-.786.614-.993A5.142,5.142,0,0,1,4818.293,51.254Zm.583,2.193a.785.785,0,0,0,.686.123c.225-.1.533-.2.6-.407.04-.142.051-.278-.124-.367a.775.775,0,0,0-.757-.094.842.842,0,0,1-.2.053C4818.518,52.933,4818.5,53.275,4818.876,53.447Z" fill="#fff"/>
          <path id="Path_54" data-name="Path 54" d="M4818.213,58.314a2.247,2.247,0,0,1-.5-.018,3.737,3.737,0,0,0-.379-.029c-.143-.013-.235-.066-.266-.142s-.021-.154.1-.2a1.049,1.049,0,0,0,.532-.4,1.015,1.015,0,0,1,.472-.319c.02,0,.153-.03.184-.035a1.207,1.207,0,0,1,.245.012,1.188,1.188,0,0,1,.482.159c.215.125.441.243.44.432.01.135-.123.236-.164.272A1.98,1.98,0,0,1,4818.213,58.314Z" fill="#fff"/>
          <path id="Path_55" data-name="Path 55" d="M4822.208,57.132a.863.863,0,0,1,.092-.066l.04-.023c.225-.13.318-.183.421-.183a.7.7,0,0,1,.317.112l.983.568c.522.3,1.035.609,1.547.9.266.154.327.189.327.272.01.1-.154.148-.318.254a2.349,2.349,0,0,1-.328.142c-.111.042-.132.112-.246.107-.071.041-.225-.083-.45-.177-.543-.3-.973-.562-1.526-.87l-1.054-.609c-.164-.094-.164-.154-.164-.188C4821.87,57.291,4822.044,57.238,4822.208,57.132Z" fill="#fff"/>
        </g>
      </g>
      <line id="Line_3" data-name="Line 3" y2="13.894" transform="translate(4753.818 125.12)" fill="none" stroke="#5258b6" stroke-linejoin="round" stroke-width="3"/>
      <line id="Line_4" data-name="Line 4" y2="13.894" transform="translate(4767.376 125.12)" fill="none" stroke="#5258b6" stroke-linejoin="round" stroke-width="3"/>
      <g id="Group_11" data-name="Group 11">
        <g id="Group_10" data-name="Group 10">
          <path id="Path_56" data-name="Path 56" d="M4809.141,68.08l-24.355-4.73-4.511-.46L4747.2,47.777c-2.333-1.347.239-6.734-2.455-5.178l-5.821-3.33-16.908,3.019V49.92a2.711,2.711,0,0,0,1.57,2.274l60.362,35.426a8.392,8.392,0,0,0,4.408.9h0a10.51,10.51,0,0,0,4.734-1.279l13.816-8.553c1.586-.915,2.334-2.114,2.211-3.22Z" fill="#5258b6"/>
          <g id="Path_57" data-name="Path 57" fill="#fff" stroke-miterlimit="10">
            <path d="M 4787.92041015625 78.72685241699219 C 4786.63623046875 78.72685241699219 4785.4931640625 78.47540283203125 4784.7021484375 78.01883697509766 L 4724.33984375 43.16896438598633 C 4724.03173828125 42.9911994934082 4723.515625 42.62617492675781 4723.515625 42.17727661132813 C 4723.515625 41.79267501831055 4723.9033203125 41.11980056762695 4724.99609375 40.48916244506836 L 4738.81298828125 32.51205062866211 C 4740.0087890625 31.82125091552734 4741.62109375 31.42514991760254 4743.236328125 31.42514991760254 C 4744.5205078125 31.42514991760254 4745.66357421875 31.67654991149902 4746.4541015625 32.13302612304688 L 4806.81689453125 66.98303985595703 C 4807.12451171875 67.16071319580078 4807.64111328125 67.52584075927734 4807.640625 67.97491455078125 C 4807.640625 68.35951232910156 4807.2529296875 69.03232574462891 4806.16064453125 69.66278839111328 L 4792.34423828125 77.63997650146484 C 4791.14794921875 78.33067321777344 4789.53515625 78.72685241699219 4787.92041015625 78.72685241699219 Z" stroke="none"/>
            <path d="M 4787.92041015625 77.22683715820313 C 4789.259765625 77.22683715820313 4790.63330078125 76.89563751220703 4791.59423828125 76.3409423828125 L 4805.41064453125 68.36356353759766 C 4805.5595703125 68.27780151367188 4805.68310546875 68.19521331787109 4805.78466796875 68.11923217773438 L 4745.7041015625 33.43205642700195 C 4745.154296875 33.11465454101563 4744.23193359375 32.92516326904297 4743.236328125 32.92516326904297 C 4741.896484375 32.92516326904297 4740.5234375 33.2562370300293 4739.56298828125 33.81109237670898 L 4725.74560546875 41.78831100463867 C 4725.59716796875 41.87406921386719 4725.4736328125 41.95666122436523 4725.37158203125 42.03264236450195 L 4785.45166015625 76.71967315673828 C 4786.001953125 77.03723907470703 4786.9248046875 77.22683715820313 4787.92041015625 77.22683715820313 M 4787.92041015625 80.22684478759766 C 4786.4306640625 80.22684478759766 4785.00927734375 79.92803192138672 4783.9521484375 79.31800079345703 L 4723.58984375 44.46799850463867 C 4721.255859375 43.12099838256836 4721.5517578125 40.74499893188477 4724.24609375 39.18999862670898 L 4738.06298828125 31.21299934387207 C 4739.53662109375 30.3616828918457 4741.4365234375 29.92515563964844 4743.236328125 29.92515563964844 C 4744.72607421875 29.92515563964844 4746.1474609375 30.22397041320801 4747.2041015625 30.83399963378906 L 4807.56689453125 65.68399810791016 C 4809.89990234375 67.03099822998047 4809.60498046875 69.40699768066406 4806.91015625 70.96199798583984 L 4793.09423828125 78.93900299072266 C 4791.61962890625 79.79032135009766 4789.72021484375 80.22684478759766 4787.92041015625 80.22684478759766 Z" stroke="none" fill="#5258b6"/>
          </g>
          <g id="Group_9" data-name="Group 9">
            <path id="Path_58" data-name="Path 58" d="M4748.3,45.354a21.475,21.475,0,0,0,3.655-2.3,3.65,3.65,0,0,1,1.15-.59,1.719,1.719,0,0,1,1.516-.009,19.1,19.1,0,0,1,3.56,2.314c1.612,1.5.111,3.087-2.235,3.52a2.5,2.5,0,0,0-2.059,1.244c-.814,1.687-4.47,2.471-6.721,1.466-1.229-.581-2.251-1.3-3.368-1.945-.7-.442-.447-.774.319-1.253C4745.312,47.06,4746.558,46.359,4748.3,45.354Zm1.085,2.636c-.686.36-.782.636-.383.867a1.8,1.8,0,0,0,1.517-.065c.462-.23.526-.709.095-.958A1.057,1.057,0,0,0,4749.383,47.99Zm4.964-1.613c.272-.156.336-.4.065-.571a1.337,1.337,0,0,0-1.325.046c-.256.147-.383.368-.08.544A1.435,1.435,0,0,0,4754.347,46.377Z" fill="#5258b6"/>
            <path id="Path_59" data-name="Path 59" d="M4764.692,52.663c.942-.544,1.869-1.1,2.81-1.622a2.091,2.091,0,0,1,2.443-.046c.383.2.734.442,1.085.664.878.543.878.894-.144,1.373a55.015,55.015,0,0,0-5.986,3.29,8.419,8.419,0,0,1-8.46.258c-2.219-1.115-3.624-3.161-.559-4.8a53.772,53.772,0,0,0,5.7-3.437,6.383,6.383,0,0,1,1.182-.609,1.592,1.592,0,0,1,1.548.047c.575.331,1.166.635,1.709.967.606.369.654.765.015,1.115a38.426,38.426,0,0,1-3.926,2.12,12.012,12.012,0,0,0-2.6,1.6c-.431.322-.494.6-.031.884a2.319,2.319,0,0,0,1.852.13c.909-.433,1.708-.913,2.554-1.383C4764.166,53.041,4764.421,52.838,4764.692,52.663Z" fill="#5258b6"/>
            <path id="Path_60" data-name="Path 60" d="M4769.036,60.479l1.357-.783a2.8,2.8,0,0,0,1.372-1.4,19.859,19.859,0,0,0,1.31-3.207,1.055,1.055,0,0,1,.957-.977,2.455,2.455,0,0,1,1.868.525c.255.148.51.314.782.452.7.35.83.774.543,1.235-.256.442-.591.857-.878,1.281-.207.359.016.525.654.47a7.934,7.934,0,0,0,1.437-.35,3.682,3.682,0,0,1,3.4.341,11.218,11.218,0,0,1,1.1.654c.607.424.479.737-.383,1.014a24.576,24.576,0,0,1-3.352.5c-1.165.194-2.378.286-3.544.5a5.306,5.306,0,0,0-2.091.783c-.894.609-1.868,1.171-2.809,1.752a1.949,1.949,0,0,1-2.379.1c-2.267-1.235-2.267-1.235-.255-2.378.319-.166.59-.341.894-.516Z" fill="#5258b6"/>
            <path id="Path_61" data-name="Path 61" d="M4787.73,61.079c.846.433.845.617-.033,1.069-1.6.811-4.677,2.664-6.082,3.585a1.369,1.369,0,0,1-1.644.083,3.245,3.245,0,0,1-.479-.295c-.3-.212-.271-.4.033-.59.622-.377,1.228-.746,1.819-1.143.91-.58,3.433-2.11,4.326-2.718.846-.544.91-.544,1.836-.083.048.027.112.027.144.046Zm-9.61,5.806a.535.535,0,0,0,.095.037c.942.525-.878,1.447-1.628,1.069l-.575-.331c-.383-.222-.079-.6.08-.71a1.581,1.581,0,0,1,1.884-.148Z" fill="#5258b6"/>
          </g>
        </g>
        <path id="Path_62" data-name="Path 62" d="M4788.12,89.224" fill="none" stroke="#fff" stroke-miterlimit="10" stroke-width="3" fill-rule="evenodd"/>
        <path id="Path_63" data-name="Path 63" d="M4787.987,77.067" fill="none" stroke="#fff" stroke-miterlimit="10" stroke-width="3" fill-rule="evenodd"/>
      </g>
      <g id="Group_12" data-name="Group 12">
        <path id="Path_64" data-name="Path 64" d="M4827.612-46l-21.23,32.946,3.42,32.563,24.651-.384,21.23-32.946-3.421-32.563Z" fill="#fff" stroke="#5258b6" stroke-linejoin="round" stroke-width="3"/>
        <path id="Path_65" data-name="Path 65" d="M4816.326-39.112l-13.082,20.3,2.108,20.065,15.19-.237,13.082-20.3-2.108-20.065Z" fill="#fff" stroke="#5258b6" stroke-linejoin="round" stroke-width="3"/>
        <path id="Path_66" data-name="Path 66" d="M4852.262-46.384l37.706,64.815-34.285-32.253Z" fill="#fff" stroke="#5258b6" stroke-linejoin="round" stroke-width="3"/>
        <path id="Path_67" data-name="Path 67" d="M4834.453,19.125l55.515-.693-34.285-32.253Z" fill="#fff" stroke="#5258b6" stroke-linejoin="round" stroke-width="3"/>
        <path id="Path_68" data-name="Path 68" d="M4809.8,19.509l80.166-1.078-55.515.693Z" fill="#fff" stroke="#5258b6" stroke-linejoin="round" stroke-width="3"/>
        <path id="Path_69" data-name="Path 69" d="M4831.516-39.348l20.747-7.035,3.421,32.563-22.06-5.463Z" fill="#fff" stroke="#5258b6" stroke-linejoin="round" stroke-width="3"/>
        <path id="Path_70" data-name="Path 70" d="M4805.352,1.254l4.45,18.255,24.651-.384L4820.542,1.017Z" fill="#fff" stroke="#5258b6" stroke-linejoin="round" stroke-width="3"/>
        <path id="Path_71" data-name="Path 71" d="M4833.624-19.284l22.06,5.463-21.23,32.946L4820.542,1.017Z" fill="#fff" stroke="#5258b6" stroke-linejoin="round" stroke-width="3"/>
        <path id="Path_72" data-name="Path 72" d="M4816.326-39.112,4827.612-46l24.65-.384-20.747,7.035Z" fill="#fff" stroke="#5258b6" stroke-linejoin="round" stroke-width="3"/>
      </g>
    </g>
  </g>
</svg>
